<?xml version="1.0" encoding="UTF-8" standalone="no"?>
<!-- Created with Inkscape (http://www.inkscape.org/) -->

<svg
   width="209.04904mm"
   height="193.25554mm"
   viewBox="0 0 209.04904 193.25554"
   version="1.1"
   id="svg5"
   xmlns="http://www.w3.org/2000/svg"
   xmlns:svg="http://www.w3.org/2000/svg">
  <defs
     id="defs2" />
  <g
     id="layer1"
     transform="translate(-0.67886603,-0.39146865)">
    <g
       id="g417"
       transform="matrix(1.3380247,0,0,1.0037992,-194.01428,80.12733)" />
    <path
       style="fill:#005f7f;fill-opacity:1;stroke:#57c2e2;stroke-width:0.232;stroke-miterlimit:4;stroke-dasharray:none;stroke-opacity:1"
       d="m 80.378811,193.38873 c -0.778543,-0.10764 -1.063334,-0.30055 -1.62559,-1.10115 -0.681689,-0.97064 -0.681689,-0.97064 -0.327996,-2.27024 0.194528,-0.71479 0.743764,-2.78094 1.220513,-4.59147 0.476748,-1.81052 0.968584,-3.64942 1.09297,-4.08645 0.124377,-0.43702 0.722572,-2.53132 1.329308,-4.65401 1.252729,-4.38266 1.600604,-5.78285 1.468152,-5.90924 -0.05071,-0.0484 -0.730115,-0.24581 -1.509701,-0.43861 -0.779586,-0.1928 -1.524483,-0.47878 -1.655325,-0.63551 -0.130842,-0.15671 -0.492151,-0.24982 -0.80291,-0.20691 -0.397966,0.0549 -0.774281,-0.14063 -1.272806,-0.6615 -0.705533,-0.73715 -0.706873,-0.74392 -0.421505,-2.11949 0.42217,-2.03501 0.465697,-2.14755 1.028952,-2.66002 1.188539,-1.0814 1.307719,-1.10193 3.609334,-0.62159 1.177588,0.24575 2.729863,0.54966 3.449495,0.67535 0.719631,0.12569 1.670628,0.33774 2.113317,0.47122 0.786689,0.23721 2.266708,0.58023 5.14251,1.19188 0.785062,0.16698 1.587962,0.36203 1.784225,0.43345 0.196264,0.0714 0.731528,0.17933 1.189475,0.23978 1.072785,0.14161 2.723965,1.79759 2.503902,2.5112 -0.07885,0.25586 -0.207673,0.82277 -0.286159,1.25979 -0.171932,0.95736 -0.392661,1.2446 -1.599219,2.08107 -1.049758,0.72778 -1.452651,0.81618 -1.233272,0.27058 0.12382,-0.30791 0.08848,-0.32401 -0.203627,-0.0927 -0.282957,0.22411 -0.504918,0.20787 -1.112535,-0.0814 -0.455502,-0.21685 -1.365148,-0.36135 -2.274703,-0.36135 -1.684278,0 -1.783416,0.0954 -2.241137,2.15673 -0.380181,1.71214 -2.772617,10.9637 -3.816027,14.75661 -0.823401,2.99317 -0.98859,3.33486 -1.926316,3.9845 -0.91585,0.63449 -1.667778,0.72984 -3.623325,0.45948 z m 4.200408,-2.85269 c 0.09966,-0.81462 -0.33206,-1.1392 -0.606718,-0.45616 -0.07535,0.1873 -0.0312,0.34054 0.09803,0.34054 0.135356,0 0.167914,0.25495 0.07679,0.60142 -0.102609,0.39016 -0.07166,0.5504 0.08812,0.45616 0.135463,-0.0799 0.290159,-0.50379 0.343766,-0.94196 z m -0.996475,-1.44997 c 0,-0.10958 -0.160586,-0.3264 -0.356849,-0.48185 -0.289405,-0.22921 -0.35684,-0.22016 -0.35684,0.0479 0,0.18177 0.07139,0.39861 0.158599,0.48185 0.225925,0.2156 0.55509,0.1872 0.55509,-0.0479 z m 41.228626,2.53679 c -0.54886,-0.34543 -1.05017,-0.78284 -1.11401,-0.972 -0.7364,-2.18211 -0.8193,-2.75387 -0.48735,-3.36109 0.18498,-0.3384 0.34041,-0.71742 0.34537,-0.84228 0.0301,-0.75756 0.82164,-1.12102 3.97273,-1.82435 5.29596,-1.18207 6.45375,-1.50743 6.59257,-1.85268 0.23534,-0.58523 -0.59716,-3.24442 -1.025,-3.27412 -0.44699,-0.031 -0.45593,-0.0293 -2.11281,0.38785 -2.44864,0.6166 -6.03815,0.33458 -8.0795,-0.63479 -1.66052,-0.78853 -3.39944,-2.39561 -3.99912,-3.69592 -0.98498,-2.13577 -1.34314,-3.67153 -1.07389,-4.60474 0.44836,-1.55399 2.91588,-5.06295 3.93369,-5.59391 0.26111,-0.13622 0.76596,-0.43093 1.12186,-0.6549 0.71092,-0.44739 2.33107,-0.94575 4.56576,-1.40445 0.79765,-0.16372 2.50321,-0.56878 3.79014,-0.90013 2.33985,-0.60244 2.33985,-0.60244 3.48691,0.1 1.14173,0.69917 1.65088,1.42102 2.08592,2.95734 0.25493,0.90027 0.10173,1.40849 -0.70581,2.34141 -0.45355,0.52396 -0.93225,0.71946 -2.57361,1.05104 -2.65037,0.53542 -7.35094,1.54987 -8.00684,1.72799 -0.28534,0.0775 -0.57913,0.29091 -0.65286,0.47428 -0.19709,0.49012 0.59136,3.2738 0.96615,3.41105 0.17657,0.0647 1.7841,-0.23779 3.57227,-0.67211 3.15726,-0.76684 3.29251,-0.78048 4.67955,-0.47169 2.82242,0.62834 5.39139,2.46794 6.53779,4.68165 1.47974,2.85737 0.0328,7.33811 -3.31577,10.26827 -1.32516,1.15955 -1.93521,1.42555 -6.2725,2.73497 -4.57351,1.38073 -4.96581,1.41997 -6.23164,0.62333 z m 28.63814,-8.01695 c -0.98261,-0.28147 -1.21718,-0.52654 -2.57173,-2.68677 -0.67715,-1.07991 -1.52068,-2.32104 -1.87453,-2.75806 -0.35383,-0.43703 -0.93753,-1.3054 -1.29711,-1.92971 -0.54399,-0.94453 -1.94291,-3.16153 -3.28795,-5.2107 -0.74232,-1.13094 -3.81485,-5.44319 -5.24537,-7.36181 -1.83555,-2.46183 -2.00844,-3.22839 -0.93345,-4.13874 0.851,-0.72066 7.01964,-4.40359 9.64229,-5.75683 1.74158,-0.89862 2.17026,-1.03235 2.89396,-0.90279 0.99122,0.17746 1.94275,0.82829 2.15824,1.4762 0.0833,0.2505 0.40043,0.71181 0.70472,1.02514 0.53398,0.54984 0.54037,0.60098 0.18335,1.46835 -0.20345,0.49426 -0.48059,0.89866 -0.61586,0.89866 -0.13527,0 -0.46695,0.18908 -0.73707,0.42019 -0.27013,0.23111 -1.90959,1.26632 -3.64325,2.30047 -1.73367,1.03415 -3.15213,1.97604 -3.15213,2.0931 0,0.11706 0.41288,0.69089 0.91751,1.27518 0.50462,0.58428 0.98032,1.23443 1.05709,1.44478 0.38304,1.04943 0.87252,0.89658 4.92439,-1.53766 3.96645,-2.38294 4.16184,-2.45156 5.35266,-1.87957 0.74418,0.35745 1.8318,2.15487 1.8318,3.02727 0,0.99553 -0.0872,1.1117 -1.28042,1.7052 -0.54853,0.27284 -1.37635,0.79424 -1.83961,1.15864 -0.46327,0.36441 -0.92162,0.66256 -1.01856,0.66256 -0.17263,0 -3.44347,1.94101 -3.84355,2.28087 -0.11162,0.0948 0.26281,0.8208 0.83208,1.6133 0.56926,0.7925 1.14233,1.60355 1.27348,1.80232 0.65968,0.99988 1.68925,2.23314 1.87067,2.24077 0.11268,0.005 1.07616,-0.491 2.14107,-1.10163 1.06492,-0.61064 2.81586,-1.54728 3.89099,-2.08141 1.85908,-0.92363 2.00075,-0.95802 2.89414,-0.70259 1.31317,0.37546 2.49562,2.04076 2.32815,3.27882 -0.15308,1.13167 -0.29759,1.27295 -2.59948,2.54127 -1.07841,0.59419 -2.2508,1.27232 -2.60532,1.50695 -0.35452,0.23465 -0.70993,0.42663 -0.78981,0.42663 -0.0798,0 -0.9388,0.45972 -1.90874,1.0216 -0.96994,0.56189 -1.82311,1.02162 -1.89591,1.02162 -0.0728,0 -0.68876,0.35756 -1.36878,0.79458 -1.3192,0.84781 -1.36158,0.85781 -2.38796,0.5638 z m -98.176405,-0.778 c -4.596054,-1.88117 -6.772365,-2.84314 -7.279378,-3.21759 -0.392077,-0.28956 -0.646757,-0.78655 -0.788811,-1.5393 -0.18488,-0.97969 -0.138395,-1.23573 0.391591,-2.15673 0.845574,-1.46941 1.131031,-1.73351 2.466183,-2.28163 1.339253,-0.5498 1.139573,-0.61062 5.388758,1.64143 1.079421,0.57208 2.203474,1.10977 2.497914,1.19486 0.29444,0.0851 0.86914,0.3474 1.277104,0.58289 0.407973,0.23549 0.901266,0.42817 1.096198,0.42817 0.480516,0 2.129565,-2.58212 1.943912,-3.04383 -0.07993,-0.19885 -0.233317,-0.36155 -0.340781,-0.36155 -0.107474,0 -0.865984,-0.38121 -1.685581,-0.84714 -5.029752,-2.85928 -6.907235,-7.74752 -4.55179,-11.85113 1.33108,-2.31897 1.553013,-2.56493 2.774641,-3.07494 3.537277,-1.47677 7.141972,-1.5549 9.794186,-0.2123 0.64387,0.32594 2.401787,1.2126 3.90648,1.97037 3.829658,1.92861 3.949459,2.02162 4.2758,3.3198 0.249177,0.99121 0.223929,1.23465 -0.233191,2.24871 -0.672103,1.49095 -1.298459,2.00214 -2.685617,2.19186 -0.96282,0.13168 -1.297038,0.069 -2.141065,-0.40153 -0.550081,-0.30667 -1.535416,-0.83904 -2.189636,-1.18307 -0.65421,-0.34402 -2.284818,-1.22588 -3.623567,-1.95968 -2.840601,-1.55701 -2.893542,-1.54985 -4.106439,0.55559 -0.783497,1.36006 -0.783497,1.36006 -0.234342,1.75536 0.302029,0.21741 1.556834,0.89294 2.788451,1.50119 2.869967,1.41734 3.454018,1.92975 4.38482,3.84695 0.663841,1.36734 0.7652,1.82405 0.777239,3.50211 0.01834,2.55052 -0.72927,4.11848 -2.609514,5.4732 -3.101826,2.23489 -8.344106,3.12516 -11.293565,1.91793 z M 37.295218,171.35854 c -0.270891,-0.10473 -0.69094,-0.48145 -0.933464,-0.83715 -0.242514,-0.35569 -0.859851,-1.00428 -1.371864,-1.44131 -0.733571,-0.62612 -0.977831,-1.03524 -1.152138,-1.92971 -0.195996,-1.00578 -0.124541,-1.43262 0.62707,-3.74591 1.082793,-3.33258 1.632542,-5.07556 2.004963,-6.35669 0.163328,-0.56189 0.38884,-1.24783 0.501124,-1.52431 0.112284,-0.27649 0.117346,-0.55389 0.01124,-0.61647 -0.243,-0.14332 -0.477045,0.0691 -3.929972,3.56601 -2.781812,2.8173 -3.549363,3.34229 -4.88646,3.34229 -0.774124,0 -2.464649,-1.55709 -2.349902,-2.16443 0.05629,-0.29789 -0.138213,-0.46263 -0.720086,-0.60994 -0.765877,-0.19389 -0.79075,-0.23459 -0.633184,-1.03612 0.09021,-0.45886 0.288364,-1.0551 0.440351,-1.32499 0.151987,-0.26989 3.133199,-3.28572 6.624913,-6.70185 3.491718,-3.41613 7.079536,-6.95181 7.972943,-7.85708 1.608849,-1.6302 1.636093,-1.64593 2.851642,-1.64593 1.518873,0 2.470202,0.67118 2.902353,2.04769 0.538951,1.71666 0.307406,4.884 -0.593249,8.11496 -1.157366,4.1519 -1.513855,5.62593 -1.517452,6.27445 -0.0036,0.65888 -0.0036,0.65888 1.368241,-0.56756 1.887392,-1.68727 5.930783,-5.20252 7.021515,-6.10438 0.818024,-0.67637 0.99795,-0.73104 1.982098,-0.60232 0.755273,0.0988 1.377079,0.38228 2.057364,0.93797 0.536226,0.43801 1.044642,0.79638 1.129826,0.79638 0.08515,0 0.28882,0.23884 0.452526,0.53076 0.233865,0.417 0.237137,0.74522 0.01529,1.53147 -0.25201,0.89313 -1.24523,1.90997 -9.238026,9.45782 -4.925614,4.65141 -9.080723,8.45734 -9.233576,8.45762 -0.152853,2.3e-4 -0.420489,0.0452 -0.594742,0.0998 -0.174252,0.0547 -0.538465,0.0136 -0.809347,-0.0911 z M 176.75448,168.602 c -0.5039,-0.11298 -1.52091,-0.64506 -2.26001,-1.18237 -0.73912,-0.53731 -1.87912,-1.36068 -2.53333,-1.8297 -0.65422,-0.46904 -1.52246,-1.1271 -1.92943,-1.46237 -1.00969,-0.8318 -1.35004,-1.08559 -3.54218,-2.6413 -1.04675,-0.74286 -1.9567,-1.41596 -2.02212,-1.4958 -0.0654,-0.0798 -1.51063,-1.07589 -3.21159,-2.21346 -1.70096,-1.13757 -3.52087,-2.4302 -4.04424,-2.87252 -0.52337,-0.44232 -1.71585,-1.32974 -2.64996,-1.97204 -1.63103,-1.1215 -1.7089,-1.21775 -1.96326,-2.42648 -0.20567,-0.97729 -0.19827,-1.34414 0.0331,-1.64103 2.24324,-2.87844 2.08757,-2.7619 3.55846,-2.66383 1.19673,0.0798 1.52037,0.2167 2.7358,1.1573 6.58213,5.09381 13.43712,10.17628 13.56311,10.05605 0.0515,-0.0492 -0.17994,-1.07077 -0.51438,-2.27025 -0.7387,-2.64942 -0.73884,-2.65618 -0.0728,-3.37661 0.2944,-0.31843 0.70831,-0.79703 0.91982,-1.06356 0.33705,-0.42476 0.71788,-0.50456 3.08318,-0.64609 l 2.69863,-0.16146 -1.8937,-1.5553 c -1.04153,-0.85542 -2.96423,-2.27556 -4.27266,-3.15586 -1.30842,-0.8803 -2.96775,-2.08037 -3.68739,-2.66682 -0.71963,-0.58645 -1.62958,-1.22839 -2.02212,-1.42653 -0.39253,-0.19815 -0.98742,-0.60822 -1.322,-0.91126 -0.33457,-0.30304 -0.8488,-0.67381 -1.14273,-0.82393 -0.70852,-0.36186 -1.45855,-1.56628 -1.45966,-2.34394 -4.8e-4,-0.34338 0.0794,-0.62485 0.17753,-0.62549 0.0981,-6.9e-4 0.55311,-0.56235 1.01106,-1.24823 0.93504,-1.40042 1.82053,-1.83319 3.35022,-1.63739 0.71403,0.0914 1.61199,0.64871 4.07597,2.52978 1.7381,1.32691 3.42782,2.61218 3.75492,2.85616 2.96915,2.21458 3.99615,2.99764 6.04815,4.61156 1.29842,1.02121 2.62203,2.02479 2.94136,2.23017 0.31933,0.20537 0.86278,0.58961 1.20768,0.85387 2.12271,1.62639 3.31085,2.47984 3.79194,2.72379 0.86547,0.43885 1.47223,1.59325 1.47323,2.80292 9e-4,1.16976 -0.24654,1.35274 -0.80346,0.59397 -0.31431,-0.42826 -0.39643,-0.44535 -0.70857,-0.14748 -0.4741,0.45244 -0.52031,0.84788 -0.1888,1.61578 0.33366,0.77289 0.16035,1.12744 -0.45937,0.93974 -0.29731,-0.09 -0.45577,-0.0302 -0.45577,0.17219 0,0.67954 -1.4422,0.85226 -5.89346,0.70578 l -4.3339,-0.14261 0.35566,1.11101 c 0.42244,1.31958 1.3504,4.77647 1.8931,7.05231 0.35317,1.48101 0.35471,1.70426 0.0171,2.47537 -0.20411,0.46616 -0.44013,0.78168 -0.5245,0.70116 -0.29156,-0.27823 -0.79193,0.36157 -0.79193,1.01258 0,0.72615 -0.28492,0.78384 -1.98671,0.40222 z m 2.56988,-4.03309 c -0.16767,-0.59688 -0.16767,-0.59688 -0.45559,0.0479 -0.15834,0.35464 -0.43918,0.74738 -0.62407,0.87276 -0.26638,0.18065 -0.24931,0.20127 0.0823,0.0994 0.26555,-0.0816 0.52634,0.0383 0.71369,0.32808 0.28345,0.43844 0.29835,0.43256 0.37329,-0.14729 0.0429,-0.33216 0.003,-0.87255 -0.0897,-1.20083 z M 17.804468,149.17133 c -1.402014,-0.1644 -2.473858,-0.78496 -3.090704,-1.78943 -1.198532,-1.95169 -0.71142,-3.09572 2.020171,-4.74458 5.208434,-3.14395 10.464467,-6.14545 11.604306,-6.62672 0.690703,-0.29165 1.921815,-1.01585 2.735805,-1.60935 0.813988,-0.5935 2.561905,-1.76834 3.884258,-2.61075 2.730699,-1.7396 3.416406,-1.8799 4.433472,-0.90708 0.81663,0.78108 2.170071,2.52826 2.396905,3.09417 0.195948,0.48885 -0.654301,2.01905 -1.539868,2.77135 -0.488545,0.41503 -5.277094,3.31197 -10.136024,6.13204 -0.881648,0.51169 -3.048215,1.77836 -4.814593,2.8148 -6.246362,3.66515 -6.171784,3.63056 -7.493728,3.47555 z m 76.721491,-0.11341 c -1.635535,-0.0899 -4.202385,-0.36612 -5.7041,-0.61392 -1.900673,-0.31363 -2.778435,-0.37639 -2.888435,-0.20653 -0.101441,0.15662 -0.444155,0.0359 -0.956985,-0.33708 -0.469088,-0.34117 -1.191849,-0.61146 -1.750544,-0.65464 -0.71617,-0.0553 -1.009675,-0.19993 -1.186418,-0.58437 -0.238882,-0.5196 -1.073593,-0.71967 -1.073593,-0.25732 0,0.90267 -9.255218,-2.9888 -13.769343,-5.78949 -3.923168,-2.43402 -8.171778,-5.90003 -10.615006,-8.65969 -0.523377,-0.59116 -1.193377,-1.3423 -1.488886,-1.66921 -0.295519,-0.32691 -1.147863,-1.45069 -1.894091,-2.49726 -1.623325,-2.27672 -1.68452,-2.59108 -1.684403,-8.65378 7.2e-5,-3.81382 0.412945,-7.90147 1.014341,-10.04255 0.989668,-3.52337 1.521732,-5.07687 2.468296,-7.20679 0.908872,-2.045093 3.187316,-6.20057 3.612355,-6.58827 0.06842,-0.06247 0.316406,-0.401196 0.551035,-0.752815 0.234629,-0.351619 0.573315,-0.811344 0.75263,-1.021616 4.339135,-5.08802 6.303789,-6.876927 11.180382,-10.180213 2.138574,-1.448615 4.828273,-2.857442 5.123234,-2.683473 0.126185,0.07439 0.229433,0.04591 0.229433,-0.06332 0,-0.542818 4.779576,-2.334231 8.683206,-3.25452 1.177588,-0.277612 3.693331,-0.616438 5.590558,-0.752927 10.308015,-0.741619 19.597315,2.149544 25.933255,8.071361 2.59621,2.426526 3.59386,3.664207 5.46355,6.778075 0.74957,1.248338 2.14654,4.104939 2.14654,4.38933 0,0.166383 0.0803,0.379136 0.17843,0.472783 0.0981,0.09365 0.18519,0.238383 0.19347,0.321622 0.008,0.08323 0.24915,0.851697 0.53527,1.707684 0.80292,2.402119 0.69472,2.493059 -1.04679,0.879858 -4.06259,-3.763289 -8.73011,-6.059233 -15.79942,-7.77174 -4.40055,-1.066011 -12.088715,-1.174297 -16.77167,-0.23622 -5.352144,1.072121 -9.841254,2.774305 -13.980467,5.301124 -1.511805,0.922897 -1.726887,1.083592 -4.276087,3.194687 -5.136407,4.25366 -9.769532,11.16916 -11.805875,17.6217 -1.220027,3.86586 -1.641335,6.2205 -1.187137,6.63471 2.059289,1.87802 5.232857,3.95497 8.214056,5.3757 2.058416,0.98096 7.077001,2.73971 8.167004,2.86211 0.196263,0.0221 0.785052,0.15476 1.30843,0.29496 1.362477,0.36494 5.681147,0.96119 7.477502,1.03236 1.48511,0.0589 6.31072,-0.19855 7.272057,-0.38788 0.261684,-0.0516 0.957525,-0.16689 1.546323,-0.25633 4.352253,-0.66111 10.622204,-2.79151 15.939034,-5.41577 3.8096,-1.88032 7.353,-4.33542 10.55198,-7.31112 1.88704,-1.75533 4.91127,-5.28809 4.91127,-5.73711 0,-0.11792 0.16018,-0.34124 0.35596,-0.4963 1.07712,-0.85308 4.25861,-7.73336 4.72432,-10.21682 0.0585,-0.31216 0.27759,-1.42168 0.48678,-2.4656 0.54075,-2.698481 0.45205,-8.233903 -0.17331,-10.816237 -2.11403,-8.729617 -7.1202,-15.337648 -15.44948,-20.392916 -0.75489,-0.458163 -1.41615,-0.833026 -1.46948,-0.833026 -0.0533,0 -0.88091,-0.343039 -1.83907,-0.762314 -7.40419,-3.239907 -15.362223,-4.316298 -23.866464,-3.228118 -12.656852,1.61952 -23.917958,7.947468 -31.034997,17.439472 -0.844737,1.126624 -1.571211,1.947286 -1.614388,1.823684 -0.240896,-0.689655 1.357865,-6.721869 2.347371,-8.856792 0.245338,-0.529312 0.446061,-1.081859 0.446061,-1.22789 0,-0.943268 5.428329,-10.409611 5.969231,-10.409611 0.118829,0 0.216062,-0.109295 0.216062,-0.242875 0,-0.418698 1.400214,-2.206445 1.718687,-2.194372 0.886961,0.03363 1.338183,-0.09764 1.470994,-0.427924 0.113767,-0.282907 0.03722,-0.340262 -0.331394,-0.248279 -0.75789,0.189137 -0.584627,-0.446505 0.377645,-1.385444 l 0.856957,-0.836189 -0.131769,0.908099 c -0.127209,0.876659 -0.120106,0.888451 0.205138,0.340538 0.185303,-0.312159 0.340709,-0.800631 0.34534,-1.085492 0.0045,-0.284865 0.16901,-0.576737 0.365273,-0.648608 0.196264,-0.07187 0.356849,-0.30437 0.356849,-0.516659 0,-0.734425 4.648222,-4.608908 8.835079,-7.364407 1.261126,-0.829978 2.339675,-1.509052 2.396788,-1.509052 0.0571,0 1.241453,-0.604919 2.631866,-1.344266 5.956607,-3.167411 11.386615,-4.843104 20.036451,-6.18322 1.18997,-0.18436 3.95363,-0.28974 7.37479,-0.281205 4.51457,0.01126 6.01254,0.101685 8.56426,0.516959 1.70095,0.276818 3.1997,0.532155 3.33054,0.567417 0.13084,0.03526 0.71964,0.190149 1.30843,0.344194 3.05267,0.798673 7.10228,2.1174 7.73162,2.517749 0.39253,0.249705 0.86365,0.454681 1.04693,0.455503 0.18328,9.44e-4 1.36087,0.476939 2.61685,1.058034 7.74531,3.583428 15.27502,10.011457 20.30307,17.332474 1.50491,2.1912 4.64347,7.966772 5.05817,9.308019 0.0965,0.312157 0.25382,0.669723 0.34955,0.794586 0.16096,0.209938 1.40319,3.953724 1.92089,5.789137 0.38203,1.354418 0.91605,4.540303 1.19869,7.151283 0.26285,2.42804 0.30769,8.616822 0.0724,9.989096 -0.0642,0.374589 -0.20691,1.396205 -0.31707,2.270245 -0.28948,2.296917 -0.8474,4.736997 -1.92059,8.399927 -1.58579,5.41248 -5.29244,12.17864 -9.62636,17.57208 -3.14204,3.91019 -8.42793,8.83512 -13.00462,12.11657 -4.24662,3.04479 -10.57249,6.36721 -14.71582,7.7289 -2.54349,0.83591 -9.18798,2.64444 -10.20411,2.7774 -0.47193,0.0618 -1.28628,0.21035 -1.80965,0.33021 -3.92177,0.89818 -12.76764,1.41444 -18.674841,1.0899 z m -16.27665,-4.69385 c -0.08434,-0.13029 -0.305795,-0.18109 -0.492042,-0.11288 -0.266171,0.0975 -0.277266,0.18844 -0.05188,0.42515 0.317457,0.33338 0.787327,0.0636 0.543895,-0.31227 z m 63.993451,-14.27663 c -0.14326,-0.13671 -0.62296,0.97623 -0.59397,1.37807 0.0107,0.14794 0.17664,-0.0749 0.36883,-0.49524 0.19217,-0.42033 0.29348,-0.81761 0.22514,-0.88283 z m 2.00349,-1.21295 c 0,-0.2985 -0.80842,-0.25064 -1.1419,0.0676 -0.49026,0.46785 -0.31442,0.62168 0.42821,0.37462 0.39252,-0.13058 0.71369,-0.32959 0.71369,-0.44223 z m 51.44109,14.49503 c -0.40068,-0.28094 -1.19264,-0.84898 -1.75993,-1.26231 -0.56727,-0.41332 -1.27647,-0.92412 -1.57599,-1.13511 -0.29951,-0.211 -1.69406,-1.20092 -3.09899,-2.19982 -1.40492,-0.99891 -3.35445,-2.37556 -4.33229,-3.05923 -0.97784,-0.68367 -2.02412,-1.45746 -2.32509,-1.71953 -0.30097,-0.26209 -1.87586,-1.43946 -3.49977,-2.6164 -1.62391,-1.17693 -3.01743,-2.31867 -3.09673,-2.53718 -0.0793,-0.21852 -0.23715,-0.3973 -0.35077,-0.3973 -0.11363,0 -0.69521,-0.42435 -1.2924,-0.94301 -1.32412,-1.14999 -1.35394,-1.50445 -0.34941,-4.15375 0.89669,-2.36487 1.43489,-2.84967 3.1615,-2.84776 1.63775,0.002 5.35795,0.57405 7.40216,1.13861 0.9159,0.25295 2.25407,0.57297 2.97371,0.71116 0.71963,0.13819 1.46901,0.30321 1.66527,0.36672 0.19626,0.0635 0.51742,0.14289 0.71369,0.17644 3.23008,0.55196 5.84637,1.09186 12.19575,2.51672 2.61829,0.58758 3.20205,1.94295 1.93591,4.49487 -0.99732,2.01011 -1.28518,2.09695 -4.45099,1.34273 -2.6555,-0.63263 -3.01804,-0.64883 -3.02487,-0.13518 -0.003,0.21851 -0.21463,0.6527 -0.4705,0.96485 -0.25587,0.31216 -0.4676,0.75645 -0.47051,0.98731 -0.003,0.23085 -0.17849,0.76804 -0.39017,1.19376 -0.5356,1.0771 -0.17337,1.79756 1.59916,3.18066 1.5054,1.17468 2.35417,2.24192 2.35417,2.96019 0,0.7537 -0.88661,2.87655 -1.33087,3.18656 -0.62421,0.43558 -1.35829,0.36359 -2.18204,-0.214 z m -5.89252,-12.18651 c 0.32682,-0.61548 0.70331,-1.1834 0.83664,-1.26203 0.2411,-0.14221 0.34893,-1.02429 0.12523,-1.02429 -0.0645,0 -1.74211,-0.30648 -3.72811,-0.68107 -4.35771,-0.82193 -4.5675,-0.83103 -3.74125,-0.1621 2.04669,1.65695 5.52596,4.24855 5.70378,4.24855 0.11521,0 0.47688,-0.50357 0.80371,-1.11906 z M 9.0914984,136.31389 c -0.7960403,-0.51751 -0.9125143,-0.68211 -1.3930928,-1.9686 -0.8717293,-2.33359 -0.566455,-2.88247 2.3952194,-4.30646 2.239233,-1.07664 2.239233,-1.07664 2.181045,-1.95198 -0.0645,-0.97021 -1.189822,-3.89477 -1.589954,-4.13207 -0.140265,-0.0831 -1.4580417,-0.21423 -2.9283972,-0.29122 -3.0420699,-0.15928 -3.4530824,-0.35878 -3.9109309,-1.89835 -0.151774,-0.51034 -0.3649498,-1.02495 -0.4737362,-1.14357 -0.6779566,-0.73924 0.3058857,-2.1484 1.5362169,-2.20033 0.4201477,-0.0178 1.3526944,-0.0535 2.072326,-0.0794 1.7312662,-0.0624 8.9128584,-0.57216 9.4505194,-0.6708 0.503152,-0.0923 6.978313,-0.33726 12.369547,-0.46794 3.835311,-0.093 3.863234,-0.0901 4.566102,0.47434 0.678499,0.54482 1.51956,2.25673 1.939169,3.947 0.458307,1.84615 -1.21061,3.26303 -7.271532,6.17341 -2.093485,1.00526 -3.916328,1.91277 -4.050764,2.0167 -0.917463,0.70919 -12.381658,6.51275 -13.434157,6.8008 -0.549244,0.15033 -0.8620863,0.0856 -1.4575806,-0.30153 z M 19.388816,125.76002 c 1.360204,-0.74753 4.347677,-2.45994 5.314639,-3.04633 0.713688,-0.4328 0.713688,-0.4328 -2.378961,-0.30705 -1.700957,0.0692 -3.413809,0.12901 -3.806338,0.13302 -1.26461,0.013 -1.379806,0.21148 -1.068039,1.84093 0.454381,2.37483 0.311915,2.27346 1.938699,1.37943 z m 70.260274,-8.37134 c -6.389729,-0.79176 -11.266187,-4.07724 -13.751198,-9.26475 -0.467263,-0.97541 -1.078063,-3.62445 -1.214201,-5.26591 -0.116654,-1.40648 -0.116654,-1.40648 1.313789,-2.49728 0.786743,-0.599929 1.664452,-1.279322 1.950466,-1.509742 0.774452,-0.623937 1.81137,-1.09358 2.073342,-0.939072 0.127003,0.07491 0.230907,0.340911 0.230907,0.591134 0,0.790132 1.270235,3.0001 2.284261,3.97418 1.189061,1.14222 3.582118,2.26869 5.274766,2.48297 2.563962,0.32458 5.893126,-0.88367 7.703309,-2.79577 1.113705,-1.1764 1.854915,-2.707429 2.175556,-4.493754 0.224226,-1.249238 0.201631,-1.726784 -0.14236,-3.007711 -0.224901,-0.837479 -0.40801,-1.599313 -0.406913,-1.69296 0.0027,-0.230548 4.858156,-0.198166 6.155856,0.04102 1.06785,0.196844 1.84087,0.807773 2.31796,1.831904 0.87542,1.879216 1.06126,2.436114 1.41626,4.244078 0.59462,3.028273 0.20601,6.224793 -1.11494,9.171123 -1.38418,3.08732 -4.13249,5.81304 -7.41425,7.35331 -2.682182,1.25885 -6.633718,2.05214 -8.85261,1.7772 z m 106.33955,-0.42201 c -1.17758,-0.16208 -2.72985,-0.35998 -3.44948,-0.43976 -0.71964,-0.0798 -2.00428,-0.28391 -2.85476,-0.45362 -0.85048,-0.16971 -2.48096,-0.429 -3.62329,-0.57619 -2.33256,-0.30055 -3.31068,-0.79307 -5.38614,-2.71214 -1.16921,-1.08111 -2.88537,-3.84426 -2.88537,-4.64567 0,-0.21217 -0.10658,-0.57579 -0.23683,-0.80805 -0.15538,-0.27705 -0.15968,-1.3255 -0.0125,-3.04838 0.20665,-2.41961 0.28525,-2.71099 0.99968,-3.70598 0.42646,-0.593947 0.99413,-1.247967 1.26149,-1.453383 0.26735,-0.205417 0.75071,-0.594627 1.07415,-0.864903 1.16816,-0.976217 3.94759,-2.053597 5.29311,-2.051761 1.6152,0.0026 4.32634,0.418624 4.4232,0.679376 0.0412,0.110816 0.393,0.583531 0.78186,1.050489 0.4537,0.544825 0.64679,0.97644 0.53891,1.204646 -0.0925,0.1956 -0.2144,0.792114 -0.27098,1.325586 -0.089,0.83909 -0.23965,1.05978 -1.11672,1.63564 -1.01386,0.66568 -1.01386,0.66568 -3.30379,0.28778 -1.50423,-0.24825 -2.37039,-0.30114 -2.5244,-0.15417 -0.32153,0.30684 -1.06529,6.67246 -0.80824,6.9176 0.11293,0.1077 1.22233,0.30739 2.46534,0.44375 1.24301,0.13635 2.61031,0.29455 3.03844,0.35156 0.42813,0.0571 1.81982,0.20923 3.09265,0.33825 1.27282,0.12903 2.63538,0.27904 3.0279,0.33336 5.33029,0.73762 6.07949,0.70766 6.2713,-0.25086 0.0473,-0.23634 0.2302,-0.50904 0.40644,-0.60599 0.17624,-0.097 0.25991,-0.32681 0.18593,-0.51081 -0.074,-0.18399 -0.016,-0.33453 0.12883,-0.33453 0.33332,0 0.34741,-0.6165 0.0164,-0.72176 -0.16599,-0.0528 -0.1343,-0.74685 0.0968,-2.1189 0.18897,-1.12221 0.31132,-2.07219 0.27189,-2.11107 -0.0395,-0.0389 -0.65791,-0.12843 -1.3744,-0.19899 -1.30271,-0.12832 -1.30271,-0.12832 -1.4735,1.61105 -0.20487,2.08636 -0.54644,2.41296 -2.48012,2.37139 -0.96673,-0.0208 -1.41845,-0.15796 -1.96472,-0.5966 -0.77035,-0.61858 -0.7609,-0.45036 -0.19425,-3.45669 0.15298,-0.81161 0.3215,-1.98647 0.37449,-2.61079 0.053,-0.62432 0.11824,-1.315086 0.14501,-1.535037 0.0268,-0.219943 0.39251,-0.717945 0.81276,-1.106657 0.7641,-0.706748 0.7641,-0.706748 3.48226,-0.331352 3.72016,0.513772 3.65385,0.497873 4.83789,1.160053 1.79743,1.005233 3.96238,4.100763 4.48319,6.410243 0.13153,0.58325 0.0892,0.73783 -0.20215,0.73783 -0.23424,0 -0.48728,-0.38854 -0.69433,-1.06619 -0.17917,-0.5864 -0.44803,-1.10508 -0.59746,-1.15262 -0.17744,-0.0565 -0.14514,0.20259 0.0931,0.74679 0.20064,0.45827 0.32014,0.9514 0.26556,1.09586 -0.146,0.38637 0.27678,1.05724 0.66626,1.05724 0.26599,0 0.30776,0.25189 0.19766,1.19188 -0.0768,0.65554 -0.28584,1.35316 -0.46458,1.55029 -0.17874,0.19713 -0.32499,0.58024 -0.32499,0.85135 0,0.2711 -0.10705,0.49293 -0.23789,0.49293 -0.13084,0 -0.23789,0.23097 -0.23789,0.51329 0,1.16886 -3.38758,3.74433 -6.4786,4.92548 -1.97129,0.75326 -2.35545,0.7768 -5.53516,0.33914 z M 6.5706207,109.63371 c -0.6052167,-0.16906 -3.1556756,-1.88338 -3.1575908,-2.12241 -6.923e-4,-0.0872 -0.2710172,-0.43633 -0.600694,-0.7758 -0.7825261,-0.80577 -2.11167213,-3.39047 -1.90645359,-3.70734 0.24947389,-0.38521 0.60269909,-0.0499 1.08972439,1.03432 0.2462101,0.54813 0.5751047,0.99661 0.7308708,0.99661 0.1853746,0 0.15484,-0.13727 -0.088385,-0.3973 -0.2043734,-0.21851 -0.4894171,-0.81977 -0.6334406,-1.33612 -0.1726608,-0.61905 -0.4232947,-0.97913 -0.735816,-1.05712 -0.40249764,-0.10045 -0.47396987,-0.31085 -0.47396987,-1.3953 0,-0.952508 0.0951734,-1.311867 0.37454357,-1.414171 0.2541944,-0.09308 0.3303601,-0.305165 0.2370209,-0.660036 -0.075617,-0.287583 -0.028323,-0.587272 0.1051359,-0.66599 0.1334586,-0.07868 0.177732,-0.24335 0.098392,-0.365862 C 1.1734734,97.093212 3.8479231,94.051892 6.2604547,92.478758 8.98932,90.69934 8.6920571,90.746542 17.514662,90.691944 l 7.907755,-0.04891 2.097185,1.331389 c 3.822533,2.426727 4.963602,4.690632 4.937793,9.796677 -0.0067,1.33879 -0.124658,1.79848 -0.738668,2.88032 -0.833279,1.46818 -2.621061,3.10844 -4.650904,4.26712 -1.306238,0.74562 -1.539226,0.79906 -3.781371,0.86728 -2.389361,0.0727 -2.389361,0.0727 -3.38357,-0.90809 -0.945273,-0.93254 -0.985121,-1.02715 -0.809558,-1.92243 0.10156,-0.5179 0.09354,-1.097 -0.01782,-1.28691 -0.148992,-0.25406 0.06047,-0.56006 0.792905,-1.15835 0.995374,-0.81308 0.995374,-0.81308 3.456502,-0.81308 h 2.461131 l -0.06552,-3.57564 -0.06551,-3.575637 h -2.141065 c -2.040249,0 -9.841986,0.269916 -13.265283,0.458935 -2.2821628,0.126013 -2.4157742,0.224585 -2.6091871,1.924822 -0.035516,0.312157 -0.2134007,0.678835 -0.3953137,0.814835 -0.2769695,0.207064 -0.2648042,0.271415 0.074808,0.395785 0.3499523,0.12815 0.3934615,0.42713 0.3173317,2.18072 -0.088205,2.0322 -0.088205,2.0322 0.8072703,2.17658 1.6602488,0.26768 1.8271318,0.0938 1.7851928,-1.86031 -0.03453,-1.60865 0.0041,-1.75347 0.577768,-2.16446 0.338123,-0.24226 1.141441,-0.490267 1.785153,-0.551137 1.03284,-0.09765 1.258146,-0.0357 1.917178,0.527027 0.597375,0.5101 0.726083,0.77397 0.643288,1.31877 -0.125599,0.82647 -0.322021,3.27458 -0.300546,3.74591 0.0085,0.1873 0.04116,0.90243 0.07252,1.58917 0.05213,1.14186 -0.0094,1.31174 -0.720088,1.98647 -0.777094,0.73783 -0.777094,0.73783 -3.941009,0.71521 -1.7401571,-0.0125 -3.4017584,-0.0891 -3.6924397,-0.17027 z M 179.74344,92.692085 c -0.58462,-0.469446 -0.78895,-0.900854 -1.10551,-2.334093 -0.21358,-0.967018 -0.48729,-2.166851 -0.60825,-2.666302 -0.12095,-0.499461 -0.39502,-1.776474 -0.60905,-2.837822 -0.21402,-1.061335 -0.43451,-2.134031 -0.48997,-2.383757 -0.0555,-0.249726 -0.21927,-1.196151 -0.36405,-2.103149 -0.2558,-1.602668 -0.24554,-1.67459 0.36431,-2.554036 0.54206,-0.781664 0.74628,-0.904922 1.49937,-0.904922 0.47952,0 1.22625,-0.122297 1.65942,-0.271778 0.73039,-0.252042 0.83955,-0.224242 1.50374,0.383015 0.39389,0.360131 0.71617,0.846712 0.71617,1.081285 0,0.234573 0.0951,0.598565 0.21131,0.808863 0.11623,0.210307 0.27384,0.791016 0.35025,1.290468 0.0764,0.49946 0.30234,1.674315 0.50203,2.610787 0.19968,0.936481 0.43162,2.060256 0.51539,2.497276 0.20072,1.047105 0.52126,1.405116 1.10088,1.22956 0.25939,-0.0786 0.61586,-0.163046 0.79217,-0.187741 0.17629,-0.02471 0.395,-0.115965 0.48602,-0.202816 0.091,-0.08686 0.62561,-0.157924 1.188,-0.157924 1.70737,0 1.78719,-0.760774 0.54782,-5.221578 -0.36374,-1.309191 -0.93595,-3.86659 -0.93595,-4.183089 0,-0.162514 0.2685,-0.551724 0.59668,-0.864894 0.83582,-0.797623 3.134,-1.057088 4.17336,-0.471179 0.71233,0.401557 0.84704,0.666813 1.01576,2.000278 0.0474,0.374589 0.14445,0.834322 0.21567,1.021616 0.25212,0.663013 0.62183,2.170112 0.7797,3.178342 0.088,0.561892 0.31424,1.543454 0.5028,2.181266 0.34283,1.159642 0.34283,1.159642 1.58472,0.860818 0.68305,-0.16435 2.09832,-0.466863 3.14507,-0.672253 1.04674,-0.2054 2.03698,-0.410782 2.20053,-0.456413 0.44507,-0.124168 0.38539,-0.724466 -0.44974,-4.524205 -0.13723,-0.624315 -0.30058,-1.912646 -0.363,-2.862958 -0.10298,-1.567532 -0.0622,-1.783579 0.43883,-2.328567 0.61262,-0.666299 2.54604,-1.1385 3.3914,-0.828299 0.78714,0.288845 1.79992,1.304154 1.79992,1.804421 0,0.25315 0.15956,1.254104 0.35459,2.224331 0.94322,4.692323 1.35917,6.816735 1.45668,7.439677 0.0586,0.374589 0.21969,1.161023 0.35791,1.747631 0.21196,0.899619 0.18588,1.172237 -0.16659,1.741654 -0.22983,0.371303 -0.64063,0.778695 -0.91287,0.905325 -0.50753,0.236057 -6.70039,1.244382 -9.89189,1.610588 -2.51847,0.28899 -11.48964,1.778336 -12.16493,2.019576 -0.30938,0.110508 -1.31188,0.321184 -2.22778,0.468159 -0.91589,0.146974 -1.84042,0.317065 -2.0545,0.377978 -0.21408,0.06092 -0.71197,-0.148391 -1.10642,-0.465139 z M 26.368728,84.604708 C 24.376992,84.462753 17.355049,84.04751 13.284442,83.830982 8.6969038,83.586953 4.9018264,83.2871 4.3012583,83.121214 3.4475747,82.885406 2.7371053,80.370737 3.4117531,79.972835 c 0.1308421,-0.07714 0.2378931,-0.384877 0.2378931,-0.683786 0,-0.298918 0.1188837,-0.792475 0.2641749,-1.096789 0.4565177,-0.956156 1.0783684,-1.110871 3.5580564,-0.885247 1.2342694,0.11231 2.4057876,0.165131 2.6033775,0.117381 0.350197,-0.0846 1.273898,-1.87938 1.317353,-2.559614 0.01197,-0.187294 0.15549,-0.786202 0.318945,-1.330899 0.277354,-0.924244 0.260613,-1.02751 -0.250786,-1.546989 C 11.15938,71.680741 10.183776,70.971917 9.2927608,70.411741 7.288517,69.151674 7.0311756,68.684614 7.4047301,66.985046 7.710445,65.594161 8.1703165,64.785804 8.8547559,64.436248 c 0.3433709,-0.17537 0.7270695,-0.085 1.6528941,0.389301 3.134557,1.605851 5.457189,2.812445 6.108098,3.173125 0.392948,0.217747 2.319907,1.245815 4.282131,2.284601 1.962223,1.038785 4.638212,2.499541 5.946641,3.246119 1.308429,0.746578 2.719726,1.504216 3.136213,1.683642 0.41649,0.179426 0.927054,0.557567 1.134588,0.840328 0.207534,0.282752 0.429931,0.486916 0.494218,0.453683 0.06428,-0.03321 0.383381,0.09447 0.709106,0.283782 0.325725,0.189311 0.858161,0.498731 1.183188,0.687604 0.784412,0.455821 0.937353,1.163855 0.593165,2.746041 -0.593134,2.726538 -0.92109,3.470207 -1.699845,3.854509 -0.945752,0.466726 -3.602535,0.698493 -6.026425,0.525725 z m -1.665273,-6.275684 c -0.434914,-0.368351 -5.939205,-3.404155 -6.437606,-3.550572 -0.427407,-0.125549 -0.572165,0.05629 -1.130007,1.419201 -0.351892,0.859763 -0.639803,1.672916 -0.639803,1.80702 0,0.252 0.900478,0.323347 5.709507,0.452406 1.605851,0.04307 2.637549,-0.0098 2.497909,-0.128055 z M 197.01602,64.315536 c -1.51152,-0.366252 -2.44316,-1.087566 -3.14797,-2.437298 -0.68974,-1.320888 -0.73249,-1.684389 -0.34367,-2.922844 0.37868,-1.206137 1.48361,-2.403931 2.709,-2.93665 1.87154,-0.813623 3.72806,-0.500363 5.41055,0.912953 2.19807,1.8464 2.01625,4.936297 -0.39368,6.690447 -1.02549,0.746426 -2.80959,1.038591 -4.23423,0.693392 z m 2.54107,-1.13434 c 0.63697,-0.278333 0.65615,-0.313839 0.17842,-0.330296 -0.2944,-0.01015 -0.53526,-0.122629 -0.53526,-0.249974 0,-0.347401 -1.16422,-2.038713 -1.40336,-2.038713 -0.11434,0 -0.28014,0.459725 -0.36843,1.021612 -0.14256,0.907243 -0.22925,1.021611 -0.77434,1.021611 -0.61379,0 -0.61379,0 -0.45367,-2.417085 0.0881,-1.329398 0.22482,-2.516984 0.30389,-2.639082 0.19842,-0.30638 3.31402,-0.06967 3.76296,0.285894 0.20779,0.164566 0.36032,0.655811 0.36032,1.16044 0,0.677479 -0.13124,0.957137 -0.58126,1.238523 -0.58127,0.363453 -0.58127,0.363453 -0.0943,1.255002 0.26782,0.490353 0.57821,0.945377 0.68976,1.011164 0.37377,0.22045 0.9668,-0.98282 1.08635,-2.204275 0.0941,-0.961446 0.0183,-1.361195 -0.36995,-1.949371 -1.45903,-2.210634 -4.78807,-2.165913 -6.13881,0.08247 -0.29225,0.486458 -0.53312,1.168691 -0.53527,1.516077 -0.0146,2.350577 2.72931,4.172716 4.87296,3.23601 z m -0.26258,-3.888106 c 0.22283,-0.554154 -0.0445,-0.774101 -0.94094,-0.774101 -0.6352,0 -0.81859,0.09325 -0.81859,0.416212 0,0.567039 0.20402,0.718913 0.96577,0.718913 0.37342,0 0.71018,-0.153165 0.79376,-0.361024 z M 172.4108,58.956609 c -3.47587,-0.39485 -5.43441,-1.450741 -8.12143,-4.37844 -1.14509,-1.247639 -2.33051,-2.531472 -2.63427,-2.852962 -1.71307,-1.81303 -1.7804,-1.959823 -1.46829,-3.201395 0.22014,-0.875685 0.48924,-1.296153 1.12878,-1.763733 0.46186,-0.337671 1.01203,-0.767186 1.22262,-0.954481 0.27931,-0.248418 0.78977,-0.319504 1.88703,-0.262785 1.50416,0.07776 1.50416,0.07776 2.92089,1.929712 0.77921,1.018577 1.61843,2.080416 1.86496,2.359642 0.24651,0.279225 0.48439,0.595291 0.5286,0.702367 0.18473,0.447401 2.46565,2.762884 2.72163,2.762884 0.34857,0 2.94932,-1.597663 2.94932,-1.81179 0,-0.08664 -0.41877,-0.715596 -0.9306,-1.39769 -2.84559,-3.792232 -3.52404,-7.494447 -1.92829,-10.522509 0.84639,-1.606104 1.22423,-2.053145 2.50185,-2.960066 0.52326,-0.37144 1.14786,-0.844221 1.388,-1.050623 1.28426,-1.103868 7.21594,-0.195117 9.11553,1.396524 0.42247,0.353982 0.91052,0.728737 1.08457,0.832789 0.28953,0.1731 1.83491,2.038154 5.12429,6.184293 1.00245,1.263548 1.24888,1.745838 1.24859,2.443585 -4.8e-4,1.251729 -0.66602,2.320576 -1.97572,3.173247 -1.19615,0.778743 -1.87125,0.824892 -3.24465,0.221799 -0.32048,-0.140733 -1.795,-1.886856 -3.28311,-3.887866 -1.48574,-1.99782 -2.8877,-3.878687 -3.11546,-4.179709 -0.54298,-0.717636 -1.25671,-0.551603 -2.87438,0.668655 -1.2173,0.91825 -1.2173,0.91825 -0.55816,1.760398 0.36252,0.463181 0.73743,0.944401 0.83312,1.069375 0.0957,0.124978 0.82621,1.02693 1.62337,2.004341 1.44939,1.777109 1.44939,1.777109 1.46299,4.210243 0.0124,2.226683 -0.0437,2.544856 -0.66199,3.749826 -0.7973,1.55389 -2.62287,3.217401 -3.86948,3.525987 -1.42585,0.352955 -3.14437,0.432398 -4.94031,0.228382 z M 41.994214,56.912663 c -1.36129,-0.809402 -1.905375,-1.612153 -2.065673,-3.047683 -0.152097,-1.36215 -0.152097,-1.36215 2.305823,-3.74591 2.827923,-2.742607 4.474481,-4.540275 4.474481,-4.88513 0,-0.231832 -2.158247,-2.379666 -2.391204,-2.379666 -0.06321,0 -0.940522,0.770268 -1.949684,1.711708 -2.408773,2.247122 -4.563532,3.270221 -7.258752,3.446513 -2.659812,0.173978 -4.092164,-0.273463 -6.345363,-1.982175 -1.12656,-0.854324 -1.858796,-1.589994 -1.974031,-1.983284 -0.100754,-0.343859 -0.179549,-1.852666 -0.175103,-3.352906 0.0079,-2.677733 0.02384,-2.757292 0.86784,-4.342715 0.627467,-1.178668 1.557263,-2.30865 3.441409,-4.182342 4.454378,-4.429669 4.283236,-4.298439 5.605891,-4.298439 1.361092,0 2.150838,0.347823 3.235339,1.424921 0.714416,0.70953 0.781033,0.891557 0.713688,1.949862 -0.07427,1.167274 -0.07427,1.167274 -3.94009,4.869002 -2.126195,2.03595 -3.865811,3.839349 -3.865811,4.007554 0,0.31865 2.349843,2.50144 2.695506,2.50388 0.108678,6.81e-4 1.276637,-1.077128 2.59547,-2.395328 2.553084,-2.551873 2.956679,-2.825549 4.819605,-3.268175 4.306802,-1.023278 8.138286,0.595784 9.281787,3.922184 0.901509,2.622445 0.606278,6.753572 -0.62586,8.757752 -0.39348,0.640019 -3.105981,3.949771 -3.553732,4.336206 -0.07238,0.06243 -0.444352,0.522158 -0.826692,1.021612 -0.89775,1.172731 -1.930856,2.14934 -2.310695,2.184327 -1.416965,0.13051 -2.209031,0.05235 -2.754149,-0.271768 z M 156.61684,47.162129 c 0,-0.127954 0.26764,-0.32975 0.59474,-0.448432 0.32711,-0.118682 0.59474,-0.30856 0.59474,-0.421953 0,-0.113389 0.22342,-0.26192 0.49649,-0.330064 0.32498,-0.0811 0.4656,-0.266695 0.40709,-0.537285 -0.0688,-0.318214 -0.27523,-0.39883 -0.89659,-0.350165 -0.44396,0.03477 -0.92712,0.158195 -1.07368,0.27428 -0.14657,0.116082 -0.51092,0.150063 -0.80966,0.07551 -0.47538,-0.118632 -0.52391,-0.233447 -0.38895,-0.919982 0.15421,-0.784434 0.15421,-0.784434 -0.43231,-0.365755 -0.41296,0.294796 -0.51692,0.4997 -0.35134,0.692514 0.25517,0.297139 0.071,0.747775 -0.30558,0.747775 -0.40777,0 -1.08527,-0.768136 -1.35839,-1.540107 -0.26247,-0.741881 -0.0842,-2.374356 0.43916,-4.022002 0.11899,-0.374591 0.38754,-1.242961 0.59677,-1.929712 0.20923,-0.686749 0.47253,-1.452958 0.58512,-1.702686 0.21829,-0.484196 0.42899,-1.474508 0.62896,-2.956142 0.11831,-0.876696 0.0785,-0.943552 -1.00317,-1.684854 -1.12636,-0.771935 -1.12636,-0.771935 -1.74437,-0.08794 -0.33991,0.376198 -1.63501,2.023084 -2.87802,3.659743 -2.21647,2.918413 -2.76663,3.390089 -4.04423,3.467278 -0.97512,0.05891 -1.12852,0.0057 -1.24898,-0.433945 -0.0657,-0.240004 -0.41158,-0.47623 -0.8079,-0.55187 -0.3811,-0.07274 -0.98416,-0.389838 -1.34013,-0.704665 -0.56529,-0.499952 -0.64549,-0.739036 -0.63351,-1.888646 0.0153,-1.467108 0.10405,-1.624118 2.56144,-4.53097 1.91157,-2.261219 1.78933,-2.112626 3.61224,-4.390596 0.84933,-1.061341 1.67821,-2.064869 1.84197,-2.230061 0.16376,-0.165193 0.80384,-0.982482 1.42239,-1.816199 2.41648,-3.257016 5.02552,-6.535464 5.6089,-7.047963 0.73888,-0.649117 2.45206,-0.99658 3.49978,-0.709825 0.41691,0.114103 1.09495,0.44908 1.50675,0.744391 0.4118,0.295313 1.76574,1.105577 3.00874,1.800587 3.5853,2.004667 5.05706,3.1324 5.58905,4.28258 0.25529,0.551954 0.52082,1.054636 0.59006,1.117067 0.25797,0.232599 0.6701,1.283884 0.93728,2.390861 0.51049,2.115079 -0.81206,5.726145 -2.87978,7.862871 -0.98684,1.019773 -1.13578,1.086486 -3.99871,1.791088 -1.63554,0.402523 -3.09792,0.824686 -3.24974,0.938139 -0.25939,0.193842 -0.82823,2.347647 -1.15796,4.384442 -0.0808,0.499455 -0.24245,1.469986 -0.35908,2.156736 -0.11665,0.68675 -0.3203,1.923266 -0.45256,2.747811 -0.13226,0.824548 -0.30523,1.660241 -0.38439,1.857094 -0.25174,0.626023 -2.72264,1.180577 -2.72264,0.611049 z m 6.76148,-18.827002 c 1.25872,-1.49262 2.3934,-2.775665 2.52148,-2.85121 0.44681,-0.263523 0.22726,-0.757959 -0.54028,-1.216746 -0.42523,-0.254182 -1.04647,-0.696699 -1.38051,-0.983372 -0.33405,-0.286673 -0.77401,-0.623385 -0.97769,-0.748248 -0.20369,-0.124864 -0.6379,-0.408126 -0.96493,-0.62947 -0.77636,-0.525477 -1.14898,-0.361551 -2.10579,0.926392 -0.43524,0.585875 -0.851,1.116307 -0.9239,1.178739 -0.33303,0.2852 -2.08107,2.652569 -2.2183,3.004245 -0.11142,0.285529 0.12133,0.598235 0.84851,1.139973 1.19428,0.88972 2.16294,1.690343 2.86606,2.368861 0.28322,0.273307 0.5311,0.503169 0.55085,0.510806 0.0198,0.0076 1.06576,-1.207349 2.3245,-2.69997 z M 57.176277,39.770387 C 55.727474,39.058988 55.207162,38.510894 54.192093,36.626828 53.170577,34.730814 52.827188,34.154024 52.628399,34.000305 52.373296,33.803041 50.51518,30.283872 50.51518,29.99798 c 0,-0.150321 -0.08488,-0.307363 -0.188549,-0.348985 -0.22178,-0.08901 -0.924032,-1.171378 -1.890296,-2.913485 -0.380909,-0.68675 -1.104047,-1.986672 -1.60697,-2.888712 -0.886151,-1.589385 -0.904952,-1.670081 -0.608363,-2.610786 0.168327,-0.533892 0.340385,-1.090432 0.382348,-1.236758 0.04199,-0.146324 0.577559,-0.546384 1.190221,-0.889016 1.11392,-0.622972 1.11392,-0.622972 2.390808,-0.208777 0.702288,0.227807 1.428797,0.576784 1.61446,0.775506 0.185662,0.19872 1.182605,1.842647 2.215432,3.65317 2.25477,3.952569 2.232039,3.914653 3.848153,6.418392 1.419069,2.198466 1.471237,2.218067 3.100451,1.164928 0.447095,-0.289009 0.877088,-0.487615 0.955529,-0.44135 0.0784,0.04627 0.48386,-0.188115 0.900915,-0.520847 0.758303,-0.604964 0.758303,-0.604964 0.115008,-1.803122 C 61.963406,26.33974 60.079592,22.894653 58.171979,19.438811 56.471544,16.358304 56.32244,15.882703 56.61679,14.4782 c 0.125079,-0.596819 0.464385,-0.927281 1.796373,-1.749562 1.642161,-1.013766 1.642161,-1.013766 2.76002,-0.48446 0.928456,0.439624 1.2939,0.817791 2.156899,2.23199 0.571481,0.936477 1.362971,2.213493 1.758878,2.837811 0.395907,0.624318 1.041729,1.69701 1.435163,2.383761 0.393435,0.686749 1.180978,1.987566 1.750094,2.890702 0.569117,0.903137 1.034761,1.686793 1.034761,1.74146 0,0.05467 0.517416,0.899236 1.149813,1.876819 1.753196,2.710135 1.855059,3.225308 1.116861,5.648574 -0.2488,0.816726 -0.503075,1.236911 -0.74853,1.236911 -0.204454,0 -0.924068,0.442133 -1.599156,0.98252 -1.226294,0.981617 -3.393659,2.422852 -3.643547,2.422852 -0.07274,0 -0.537763,0.306484 -1.033366,0.681075 -0.495603,0.374591 -1.006411,0.681074 -1.135113,0.681074 -0.128702,0 -0.374418,0.161458 -0.546036,0.358793 -0.185464,0.21326 -0.540614,0.317094 -0.875568,0.255988 -0.375596,-0.06851 -0.526615,-0.01094 -0.452805,0.172601 0.153815,0.382509 -0.06672,0.633794 -1.062795,1.211071 -1.062256,0.615623 -1.916146,0.592925 -3.302459,-0.08779 z m 79.100453,-5.522929 c -2.05817,-0.855702 -11.25001,-4.106576 -11.61136,-4.106576 -0.51739,0 -1.12408,-0.779188 -1.26865,-1.629391 -0.0884,-0.519828 0.0262,-1.112426 0.34557,-1.7876 0.54548,-1.153012 1.5725,-3.686271 1.83607,-4.528878 0.0976,-0.31216 0.43652,-1.129449 0.75307,-1.816199 0.31654,-0.68675 0.66844,-1.452959 0.78201,-1.702686 0.18691,-0.411015 1.26292,-3.2156 2.74367,-7.151282 0.30536,-0.811615 0.84845,-2.3951132 1.20688,-3.5188854 0.35843,-1.1237734 0.74121,-2.1402772 0.85062,-2.258897 0.10942,-0.1186207 0.19894,-0.396941 0.19894,-0.6184886 0,-0.6133343 1.31676,-1.1652686 2.34838,-0.9843443 1.09414,0.1918876 10.24186,3.108661 11.74805,3.7458945 1.49355,0.6318835 2.24738,1.896704 1.83725,3.0826208 -0.14819,0.428519 -0.37289,0.779124 -0.49932,0.779124 -0.12643,0 -0.2125,0.127701 -0.19126,0.283781 0.13136,0.965328 -0.0481,1.279746 -0.88013,1.541783 -0.96999,0.305498 -0.69545,0.366038 -6.37745,-1.406365 -1.95384,-0.609468 -3.62622,-1.029737 -3.7164,-0.93393 -0.2831,0.300738 -1.50401,4.13726 -1.36028,4.274428 0.0753,0.07182 1.77997,0.589781 3.78824,1.151025 2.00827,0.561244 4.00442,1.122334 4.43589,1.246864 1.28497,0.370872 1.59439,1.810746 0.76423,3.556272 -0.33506,0.704501 -0.69582,1.066253 -1.30593,1.309522 -0.81579,0.325288 -0.97199,0.29555 -4.84568,-0.922547 -5.41943,-1.704167 -4.93282,-1.690352 -5.39723,-0.153215 -0.21438,0.709562 -0.53205,1.596596 -0.70592,1.971186 -0.17389,0.374592 -0.36867,0.987559 -0.43285,1.362149 -0.0642,0.374592 -0.19002,0.901089 -0.27964,1.169996 -0.15425,0.462853 0.0264,0.611736 1.07005,0.881676 0.0654,0.01691 0.27952,0.09704 0.47578,0.178044 0.19627,0.081 1.21328,0.411351 2.26002,0.734108 3.02648,0.933194 4.71024,1.786 5.06655,2.566152 0.26102,0.571529 0.24823,0.85194 -0.0829,1.818162 -0.23516,0.686101 -0.62743,1.289895 -0.98206,1.511641 -0.7248,0.453203 -1.93603,0.620173 -2.57418,0.354856 z M 78.580101,32.617967 C 77.247233,31.878581 76.774063,30.974813 76.213488,28.097659 75.407558,23.96125 74.490854,20.050634 72.72774,13.227532 72.243763,11.354577 71.840357,9.2488056 71.831294,8.5480367 c -0.01484,-1.1465185 0.07247,-1.3777706 0.872197,-2.3090764 0.605162,-0.7047678 1.135175,-1.0807947 1.661313,-1.1786292 0.42494,-0.079017 1.789629,-0.4411029 3.032638,-0.8046307 6.617956,-1.935476 6.314759,-1.8950432 9.188169,-1.2253026 3.536862,0.8243786 4.588724,1.5955927 6.0121,4.4080001 0.56222,1.1108718 1.21456,3.2957471 1.21456,4.0678991 0,0.265912 -0.649958,1.770728 -1.444352,3.344035 -1.444361,2.860559 -1.444361,2.860559 -0.844531,3.665069 0.329902,0.44248 1.658293,1.885594 2.951959,3.206917 4.071903,4.158936 4.354016,4.509773 4.179799,5.198038 -0.209948,0.829431 -1.019025,1.895501 -1.308843,1.724572 -0.129755,-0.07653 -0.166601,-0.307595 -0.08182,-0.513476 0.514458,-1.250044 0.184898,-2.785872 -0.503794,-2.347812 -0.31913,0.20299 -0.651693,0.969403 -0.610054,1.40592 0.01789,0.187295 -0.252072,0.537592 -0.599867,0.778441 -0.629223,0.435735 -0.634052,0.435453 -0.976523,-0.05676 -0.466067,-0.669857 -0.638215,-0.621504 -0.668354,0.187722 -0.01906,0.51314 0.04649,0.624414 0.265811,0.450734 0.202216,-0.160157 0.3744,-0.13492 0.563569,0.0826 0.206118,0.237008 0.199329,0.367205 -0.02787,0.53512 -1.458784,1.07794 -3.166178,-0.101412 -6.20215,-4.284025 -1.421856,-1.958871 -3.206198,-4.096595 -3.610485,-4.325516 -0.156836,-0.08881 -0.810579,-0.03773 -1.452768,0.113513 -0.907065,0.213623 -1.184062,0.385283 -1.241355,0.769294 -0.04055,0.271871 0.380325,2.161853 0.935316,4.199959 1.131364,4.154745 1.176851,4.636626 0.543536,5.758871 -0.379407,0.672316 -0.560466,0.784294 -1.201549,0.743091 -0.415158,-0.02668 -0.898434,0.05914 -1.073936,0.190728 -0.175502,0.131582 -0.533196,0.293487 -0.794889,0.359785 -0.261684,0.0663 -0.636372,0.181291 -0.832635,0.255534 -0.196263,0.07425 -0.734593,-0.07456 -1.196299,-0.330688 z m 4.794655,-16.639768 c 0.99777,-0.167881 1.949918,-0.385321 2.115871,-0.483203 0.165962,-0.09788 0.614451,-0.16948 0.996655,-0.15911 0.630932,0.01712 0.68292,-0.03726 0.564675,-0.5907 -0.07166,-0.335255 -0.244754,-1.273602 -0.384722,-2.085217 C 86.527257,11.848356 86.277783,10.52026 86.112846,9.7086466 85.819386,8.2646145 85.79716,8.2333962 85.075811,8.2521573 84.670373,8.2626942 83.312149,8.5072949 82.057532,8.7956935 79.823452,9.3092413 79.7764,9.3336742 79.7764,9.980341 c 0,1.208583 1.31396,6.316097 1.622687,6.30756 0.08883,-0.0025 0.977899,-0.141824 1.975669,-0.309702 z m 19.863484,12.469054 c -2.33912,-0.264147 -3.00277,-0.570646 -3.00277,-1.386798 0,-0.148142 -0.16747,-0.401979 -0.372138,-0.564081 -0.252244,-0.199776 -0.322403,-0.483023 -0.217771,-0.879143 0.08488,-0.321424 0.245752,-1.401697 0.357439,-2.400606 0.33932,-3.034862 0.6622,-5.653961 1.20345,-9.762069 0.13161,-0.998909 0.29322,-2.327004 0.35914,-2.951322 0.0659,-0.6243192 0.22152,-2.0034942 0.34578,-3.0648361 0.12426,-1.061341 0.22622,-2.5018932 0.22659,-3.2012261 9e-4,-1.7392039 0.35143,-2.5569807 1.39051,-3.24414997 0.82119,-0.54308005 0.98101,-0.56909431 2.30367,-0.37497756 0.78169,0.11472341 2.54532,0.26841157 3.91917,0.34152919 1.37385,0.0731141 2.92612,0.18037944 3.44949,0.23835764 0.95628,0.1059353 1.85624,0.1817497 5.59056,0.4709629 2.75041,0.213011 2.61396,0.1814786 3.22868,0.7460879 0.72737,0.6680828 1.13669,1.9179933 0.94592,2.8884535 -0.21132,1.0749386 -1.82493,2.2226763 -2.86407,2.0371675 -0.39369,-0.070283 -1.46516,-0.1822242 -2.38106,-0.2487623 -0.9159,-0.066542 -2.99025,-0.2307167 -4.60966,-0.3648406 -3.39866,-0.2814839 -3.34068,-0.3093163 -3.37442,1.6194979 -0.0121,0.6867493 -0.0613,1.4510672 -0.10962,1.6984831 -0.16407,0.840819 0.49306,1.18582 2.57247,1.350558 1.07403,0.08509 2.59511,0.248772 3.38017,0.363737 0.78505,0.114965 1.80205,0.253248 2.26001,0.307294 0.45795,0.05405 1.45259,0.170886 2.21031,0.259643 1.28047,0.149994 1.4082,0.219515 1.81046,0.9854 0.23804,0.453209 0.39397,1.130502 0.34654,1.505092 -0.23788,1.87869 -0.34815,2.134493 -1.1152,2.586894 -0.80431,0.474369 -1.08344,0.483045 -4.67949,0.145455 -3.08807,-0.289904 -3.48475,-0.323456 -5.61958,-0.47529 l -2.17009,-0.154341 -0.1399,2.013477 c -0.31906,4.591564 -0.8329,7.792864 -1.3895,8.656825 -0.40934,0.635384 -1.18618,1.263302 -1.43008,1.155947 -0.0414,-0.01818 -1.13256,-0.152473 -2.42501,-0.298419 z"
       id="path1171" />
  </g>
</svg>
